<svg width="718" height="265" viewBox="0 0 718 265" fill="none" xmlns="http://www.w3.org/2000/svg">
<path d="M446.74 0H285.85L228.79 74.24V0H182V180H228.79V101.94L289.67 180H446.73C496.39 180 535.3 137.27 535.3 90C535.3 42.25 495.91 0 446.74 0ZM330.71 156.21L272.24 85.23L330.71 15.42V156.21ZM435.04 140.37H377.51V109.34H430.03V69.71H377.51V39.63H435.04C467.03 39.63 486.37 61.12 486.37 90C486.36 119.12 467.74 140.37 435.04 140.37Z" fill="#FF3F4C"/>
<path d="M5.2 222.25L24.78 202.49H31.67L10.07 223.96L32.34 248.48H25.32L6.47 227.37L5.18999 228.65V248.48H0V202.48H5.18999V222.25H5.2Z" fill="#B2B2B2"/>
<path d="M37.95 219.82H42.89V223.3C45.15 220.55 47.89 219.15 51.06 219.15C54.35 219.15 56.92 220.19 58.69 222.32C60.15 224.03 60.95 226.83 60.95 230.68V248.49H56.0099V231.59C56.0099 228.6 55.52 226.59 54.67 225.37C53.75 224.21 52.23 223.6 49.97 223.6C44.97 223.6 42.89 226.77 42.89 234.15V248.49H37.95V219.82V219.82Z" fill="#B2B2B2"/>
<path d="M83.58 219.2C92 219.2 98.71 225.85 98.71 234.27C98.71 242.75 92 249.28 83.46 249.28C75.1 249.28 68.45 242.63 68.45 234.03C68.45 226.28 74.74 219.2 83.58 219.2ZM83.46 244.83C89.38 244.83 93.71 240.5 93.71 234.28C93.71 228.06 89.44 223.66 83.52 223.66C77.79 223.66 73.45 228.24 73.45 234.09C73.45 240.37 77.6 244.83 83.46 244.83Z" fill="#B2B2B2"/>
<path d="M106.46 219.82L114.94 239.22L123.85 217.62L132.82 239.22L141.36 219.82H146.91L132.7 250.44L123.85 229.15L115 250.44L100.91 219.82H106.46Z" fill="#B2B2B2"/>
<path d="M157.02 198.16V236.9C157.02 242.88 158.67 244.83 163.06 244.83L162.02 249.28C156.35 249.28 152.08 246.35 152.08 237.75V198.16H157.02Z" fill="#B2B2B2"/>
<path d="M172.4 235.19C172.64 241.05 176.3 244.83 181.49 244.83C185.33 244.83 187.65 243.3 190.34 238.85L194.49 241.17C191.32 246.6 186.99 249.28 181.31 249.28C172.89 249.28 167.22 243.06 167.22 234.33C167.22 225.42 172.71 219.2 181.07 219.2C189.31 219.2 194.74 225.18 194.74 234.33V235.18H172.4V235.19ZM189.54 231.04C188.69 226.59 185.39 223.66 181.12 223.66C176.91 223.66 173.43 226.83 172.7 231.04H189.54Z" fill="#B2B2B2"/>
<path d="M224.06 198.16H229V248.49H224.06V244.53C221.44 247.7 218.14 249.29 214.12 249.29C206.25 249.29 200.39 242.82 200.39 234.16C200.39 225.44 206.19 219.21 214.06 219.21C218.03 219.21 221.38 220.74 224.06 223.91V198.16ZM214.79 244.83C220.59 244.83 224.37 240.32 224.37 234.15C224.37 228.05 220.4 223.66 214.85 223.66C209.66 223.66 205.39 227.87 205.39 233.97C205.4 240.19 209.24 244.83 214.79 244.83Z" fill="#B2B2B2"/>
<path d="M265.24 219.82V247.39C265.24 251.48 264.93 255.32 262.98 258.31C260.6 261.91 257.18 264.41 251.02 264.41C243.09 264.41 237.05 258.98 237.05 251.23H241.93C242.42 257.03 245.47 259.95 251.08 259.95C257.18 259.95 260.29 256.29 260.29 248.6V244.51C257.54 247.62 254.13 249.21 250.16 249.21C242.35 249.21 236.56 242.62 236.56 234.26C236.56 225.54 242.6 219.13 250.41 219.13C254.31 219.13 257.67 220.72 260.29 223.89V219.8H265.24V219.82ZM250.9 244.83C256.51 244.83 260.54 240.38 260.54 234.28C260.54 227.94 256.51 223.6 250.96 223.6C245.53 223.6 241.57 227.99 241.57 234.21C241.57 240.43 245.41 244.83 250.9 244.83Z" fill="#B2B2B2"/>
<path d="M278.35 235.19C278.59 241.05 282.25 244.83 287.44 244.83C291.28 244.83 293.6 243.3 296.29 238.85L300.44 241.17C297.27 246.6 292.94 249.28 287.26 249.28C278.84 249.28 273.17 243.06 273.17 234.33C273.17 225.42 278.66 219.2 287.02 219.2C295.26 219.2 300.69 225.18 300.69 234.33V235.18H278.35V235.19ZM295.49 231.04C294.64 226.59 291.34 223.66 287.07 223.66C282.86 223.66 279.38 226.83 278.65 231.04H295.49Z" fill="#B2B2B2"/>
<path d="M352.16 207.25H333.49V220.92H351.61V225.74H333.49V243.68H352.16V248.5H328.31V202.5H352.16V207.25Z" fill="#B2B2B2"/>
<path d="M368.38 233.24L357.95 219.82H363.93L371.37 229.58L378.87 219.82H384.97L374.48 233.24L386.38 248.49H380.46L371.37 236.84L362.28 248.49H356.12L368.38 233.24Z" fill="#B2B2B2"/>
<path d="M412.86 228.36C409.69 224.94 407.49 223.66 403.83 223.66C398.16 223.66 393.7 228.17 393.7 234.28C393.7 240.39 398.09 244.83 403.7 244.83C407.48 244.83 409.5 243.61 413.03 239.83V246.36C409.98 248.31 406.87 249.29 403.88 249.29C395.46 249.29 388.69 242.88 388.69 234.34C388.69 225.86 395.16 219.21 403.94 219.21C407.05 219.21 409.98 220.13 412.85 221.89V228.36H412.86Z" fill="#B2B2B2"/>
<path d="M421.21 198.16H426.15V223.17C428.41 220.55 431.15 219.21 434.32 219.21C437.55 219.21 440.11 220.25 441.94 222.38C443.47 224.09 444.2 226.83 444.2 230.74V248.49H439.32V231.04C439.32 225.79 437.55 223.66 433.34 223.66C428.28 223.66 426.14 226.83 426.14 234.21V248.49H421.2V198.16H421.21Z" fill="#B2B2B2"/>
<path d="M475.44 219.82H480.38V248.49H475.44V244.53C472.76 247.7 469.46 249.29 465.56 249.29C457.63 249.29 451.77 242.88 451.77 234.1C451.77 225.32 457.5 219.15 465.44 219.15C469.4 219.15 472.76 220.74 475.44 223.91V219.82ZM466.17 244.83C471.96 244.83 475.75 240.32 475.75 234.15C475.75 227.93 471.79 223.6 466.23 223.6C460.98 223.6 456.77 227.99 456.77 233.97C456.77 240.19 460.62 244.83 466.17 244.83Z" fill="#B2B2B2"/>
<path d="M489.77 219.82H494.71V223.3C496.97 220.55 499.71 219.15 502.88 219.15C506.17 219.15 508.74 220.19 510.5 222.32C511.96 224.03 512.76 226.83 512.76 230.68V248.49H507.82V231.59C507.82 228.6 507.33 226.59 506.48 225.37C505.56 224.21 504.04 223.6 501.78 223.6C496.78 223.6 494.7 226.77 494.7 234.15V248.49H489.76V219.82H489.77Z" fill="#B2B2B2"/>
<path d="M548.94 219.82V247.39C548.94 251.48 548.64 255.32 546.68 258.31C544.3 261.91 540.88 264.41 534.72 264.41C526.79 264.41 520.75 258.98 520.75 251.23H525.63C526.12 257.03 529.17 259.95 534.78 259.95C540.88 259.95 543.99 256.29 543.99 248.6V244.51C541.24 247.62 537.83 249.21 533.86 249.21C526.05 249.21 520.26 242.62 520.26 234.26C520.26 225.54 526.3 219.13 534.11 219.13C538.01 219.13 541.37 220.72 543.99 223.89V219.8H548.94V219.82ZM534.61 244.83C540.22 244.83 544.25 240.38 544.25 234.28C544.25 227.94 540.22 223.6 534.67 223.6C529.24 223.6 525.27 227.99 525.27 234.21C525.27 240.43 529.12 244.83 534.61 244.83Z" fill="#B2B2B2"/>
<path d="M562.06 235.19C562.3 241.05 565.96 244.83 571.15 244.83C574.99 244.83 577.31 243.3 580 238.85L584.15 241.17C580.98 246.6 576.65 249.28 570.97 249.28C562.55 249.28 556.88 243.06 556.88 234.33C556.88 225.42 562.37 219.2 570.73 219.2C578.97 219.2 584.4 225.18 584.4 234.33V235.18H562.06V235.19ZM579.2 231.04C578.35 226.59 575.05 223.66 570.78 223.66C566.57 223.66 563.09 226.83 562.36 231.04H579.2Z" fill="#B2B2B2"/>
<path d="M612.01 202.49H621.47C625.56 202.49 629.09 203.04 632.02 204.08C634.95 205.18 637.57 206.89 639.89 209.2C644.16 213.53 646.3 218.96 646.3 225.49C646.3 232.02 644.1 237.45 639.77 241.78C637.33 244.16 634.71 245.93 631.84 246.97C629.03 248.01 625.56 248.5 621.35 248.5H612.02V202.49H612.01ZM617.2 243.67H621.65C627.75 243.67 632.51 241.96 635.99 238.36C639.41 234.94 641.11 230.67 641.11 225.49C641.11 220.31 639.4 215.97 636.05 212.56C632.63 209.02 627.81 207.25 621.65 207.25H617.2V243.67V243.67Z" fill="#B2B2B2"/>
<path d="M676.25 219.82H681.19V248.49H676.25V244.53C673.57 247.7 670.27 249.29 666.37 249.29C658.44 249.29 652.58 242.88 652.58 234.1C652.58 225.32 658.31 219.15 666.25 219.15C670.21 219.15 673.57 220.74 676.25 223.91V219.82ZM666.98 244.83C672.77 244.83 676.56 240.32 676.56 234.15C676.56 227.93 672.6 223.6 667.04 223.6C661.79 223.6 657.58 227.99 657.58 233.97C657.58 240.19 661.42 244.83 666.98 244.83Z" fill="#B2B2B2"/>
<path d="M699.79 245.801L686.61 219.811H692.34L702.41 240.371L711.68 219.811H717.23L696.12 264.591H690.51L699.79 245.801Z" fill="#B2B2B2"/>
</svg>
