<?xml version="1.0" encoding="utf-8"?>
<!-- Generator: Adobe Illustrator 26.0.3, SVG Export Plug-In . SVG Version: 6.00 Build 0)  -->
<svg version="1.1" id="Calque_1" xmlns="http://www.w3.org/2000/svg" xmlns:xlink="http://www.w3.org/1999/xlink" x="0px" y="0px"
	 viewBox="0 0 945.71 264.59" style="enable-background:new 0 0 945.71 264.59;" xml:space="preserve">
<style type="text/css">
	.st0{fill:#FF3F4C;}
	.st1{fill:#B2B2B2;}
</style>
<g>
	<g id="LOGO_00000029019689536467148100000009690362499746631571_">
		<g id="UNLOC_00000028325079871424628490000004070425634488052393_">
			<path d="M20.23,0v107.41c0,14.52,0.24,28.08,8.33,37.84c8.33,10,22.13,16.18,35.46,16.18c12.61,0,26.9-5.47,35.46-16.18
				c8.09-9.76,8.33-23.32,8.33-37.84V0h20.23v112.88c0,17.14-3.09,34.03-15.71,47.13C99.73,173.34,83.54,180,64.02,180
				s-35.7-6.66-48.32-19.99C3.81,147.63,0,131.45,0,112.88V0H20.23z"/>
			<path d="M159.7,65.04h19.28v13.57c8.81-10.71,19.52-16.18,31.89-16.18c12.85,0,22.85,4.05,29.75,12.38
				c5.71,6.66,8.81,17.61,8.81,32.61v69.5h-19.28v-65.93c0-11.66-1.9-19.52-5.24-24.28c-3.57-4.52-9.52-6.9-18.33-6.9
				c-19.52,0-27.61,12.38-27.61,41.17v55.93H159.7V65.04z"/>
			<path d="M300.36,0v131.68c0,23.33,6.43,30.94,23.56,30.94L319.87,180c-22.13,0-38.79-11.42-38.79-44.98V0H300.36z"/>
			<path d="M394.37,62.66c32.84,0,59.03,25.94,59.03,58.79c0,33.08-26.18,58.55-59.5,58.55c-32.61,0-58.55-25.94-58.55-59.5
				C335.34,90.27,359.86,62.66,394.37,62.66z M393.89,162.63c23.09,0,39.99-16.9,39.99-41.17c0-24.28-16.66-41.41-39.75-41.41
				c-22.37,0-39.27,17.85-39.27,40.7C354.86,145.25,371.04,162.63,393.89,162.63z"/>
			<path d="M565.25,98.36c-12.38-13.33-20.94-18.33-35.23-18.33c-22.13,0-39.51,17.61-39.51,41.41c0,23.8,17.14,41.17,39.03,41.17
				c14.76,0,22.61-4.76,36.42-19.52v25.47c-11.9,7.62-24.04,11.42-35.7,11.42c-32.85,0-59.26-24.99-59.26-58.31
				c0-33.08,25.23-59.03,59.5-59.03c12.14,0,23.56,3.57,34.75,10.47V98.36z"/>
		</g>
		<path id="KED_00000081620969216737487430000006756036845463388075_" class="st0" d="M857.15,0H696.26l-57.06,74.24V0h-46.79v180
			h46.79v-78.06L700.08,180h157.06c49.66,0,88.57-42.73,88.57-90C945.71,42.25,906.32,0,857.15,0z M741.12,156.21l-58.47-70.98
			l58.47-69.81V156.21z M845.45,140.37h-57.53v-31.03h52.52V69.71h-52.52V39.63h57.53c31.99,0,51.33,21.49,51.33,50.37
			C896.77,119.12,878.15,140.37,845.45,140.37z"/>
	</g>
	<g id="baseline_00000083086487339698298590000003391264119794429361_">
		<path class="st1" d="M15.06,202.49v28.18c0,3.72,0.06,7.2,2.13,9.7c2.14,2.56,5.67,4.15,9.09,4.15c3.23,0,6.89-1.4,9.09-4.15
			c2.07-2.5,2.14-5.98,2.14-9.7v-28.18h5.19v29.59c0,4.39-0.79,8.72-4.03,12.08c-3.23,3.42-7.38,5.12-12.38,5.12
			s-9.15-1.71-12.38-5.12c-3.05-3.17-4.03-7.32-4.03-12.08v-29.59H15.06z"/>
		<path class="st1" d="M53.49,219.82h4.94v3.48c2.26-2.75,5-4.15,8.17-4.15c3.29,0,5.86,1.04,7.63,3.17
			c1.46,1.71,2.26,4.51,2.26,8.36v17.81h-4.94v-16.9c0-2.99-0.49-5-1.34-6.22c-0.92-1.16-2.44-1.77-4.7-1.77
			c-5,0-7.08,3.17-7.08,10.55v14.34h-4.94V219.82z"/>
		<path class="st1" d="M90.76,198.16v38.74c0,5.98,1.65,7.93,6.04,7.93l-1.04,4.45c-5.67,0-9.94-2.93-9.94-11.53v-39.59H90.76z"/>
		<path class="st1" d="M116.07,219.2c8.42,0,15.13,6.65,15.13,15.07c0,8.48-6.71,15.01-15.25,15.01c-8.36,0-15.01-6.65-15.01-15.25
			C100.94,226.28,107.23,219.2,116.07,219.2z M115.95,244.83c5.92,0,10.25-4.33,10.25-10.55s-4.27-10.62-10.19-10.62
			c-5.73,0-10.07,4.58-10.07,10.43C105.95,240.37,110.09,244.83,115.95,244.83z"/>
		<path class="st1" d="M161.09,228.36c-3.17-3.42-5.37-4.7-9.03-4.7c-5.67,0-10.13,4.51-10.13,10.62s4.39,10.55,10,10.55
			c3.78,0,5.8-1.22,9.33-5v6.53c-3.05,1.95-6.16,2.93-9.15,2.93c-8.42,0-15.19-6.41-15.19-14.95c0-8.48,6.47-15.13,15.25-15.13
			c3.11,0,6.04,0.92,8.91,2.68V228.36z"/>
		<path class="st1" d="M174.39,198.16v32.27l10.37-10.61h6.53l-12.26,12.2l14.58,16.47h-6.41l-11.59-13.05l-1.22,1.28v11.77h-4.94
			v-50.33H174.39z"/>
		<path class="st1" d="M223.8,222.25l19.58-19.76h6.89l-21.6,21.47l22.27,24.52h-7.02l-18.85-21.11l-1.28,1.28v19.83h-5.19v-46h5.19
			V222.25z"/>
		<path class="st1" d="M256.55,219.82h4.94v3.48c2.26-2.75,5-4.15,8.17-4.15c3.29,0,5.86,1.04,7.63,3.17
			c1.46,1.71,2.26,4.51,2.26,8.36v17.81h-4.94v-16.9c0-2.99-0.49-5-1.34-6.22c-0.92-1.16-2.44-1.77-4.7-1.77
			c-5,0-7.08,3.17-7.08,10.55v14.34h-4.94V219.82z"/>
		<path class="st1" d="M302.18,219.2c8.42,0,15.13,6.65,15.13,15.07c0,8.48-6.71,15.01-15.25,15.01c-8.36,0-15.01-6.65-15.01-15.25
			C287.05,226.28,293.34,219.2,302.18,219.2z M302.06,244.83c5.92,0,10.25-4.33,10.25-10.55s-4.27-10.62-10.19-10.62
			c-5.73,0-10.07,4.58-10.07,10.43C292.05,240.37,296.2,244.83,302.06,244.83z"/>
		<path class="st1" d="M325.06,219.82l8.48,19.4l8.91-21.6l8.97,21.6l8.54-19.4h5.55l-14.21,30.62l-8.85-21.29l-8.85,21.29
			l-14.09-30.62H325.06z"/>
		<path class="st1" d="M375.62,198.16v38.74c0,5.98,1.65,7.93,6.04,7.93l-1.04,4.45c-5.67,0-9.94-2.93-9.94-11.53v-39.59H375.62z"/>
		<path class="st1" d="M391,235.19c0.24,5.86,3.9,9.64,9.09,9.64c3.84,0,6.16-1.53,8.85-5.98l4.15,2.32
			c-3.17,5.43-7.5,8.11-13.18,8.11c-8.42,0-14.09-6.22-14.09-14.95c0-8.91,5.49-15.13,13.85-15.13c8.24,0,13.67,5.98,13.67,15.13
			v0.85H391z M408.14,231.04c-0.85-4.45-4.15-7.38-8.42-7.38c-4.21,0-7.69,3.17-8.42,7.38H408.14z"/>
		<path class="st1" d="M442.66,198.16h4.94v50.33h-4.94v-3.96c-2.62,3.17-5.92,4.76-9.94,4.76c-7.87,0-13.73-6.47-13.73-15.13
			c0-8.72,5.8-14.95,13.67-14.95c3.97,0,7.32,1.53,10,4.7V198.16z M433.39,244.83c5.8,0,9.58-4.51,9.58-10.68
			c0-6.1-3.97-10.49-9.52-10.49c-5.19,0-9.46,4.21-9.46,10.31C424,240.19,427.84,244.83,433.39,244.83z"/>
		<path class="st1" d="M483.84,219.82v27.57c0,4.09-0.31,7.93-2.26,10.92c-2.38,3.6-5.8,6.1-11.96,6.1
			c-7.93,0-13.97-5.43-13.97-13.18h4.88c0.49,5.8,3.54,8.72,9.15,8.72c6.1,0,9.21-3.66,9.21-11.35v-4.09
			c-2.75,3.11-6.16,4.7-10.13,4.7c-7.81,0-13.6-6.59-13.6-14.95c0-8.72,6.04-15.13,13.85-15.13c3.9,0,7.26,1.59,9.88,4.76v-4.09
			H483.84z M469.5,244.83c5.61,0,9.64-4.45,9.64-10.55c0-6.34-4.03-10.68-9.58-10.68c-5.43,0-9.39,4.39-9.39,10.61
			C460.17,240.43,464.01,244.83,469.5,244.83z"/>
		<path class="st1" d="M496.95,235.19c0.24,5.86,3.9,9.64,9.09,9.64c3.84,0,6.16-1.53,8.85-5.98l4.15,2.32
			c-3.17,5.43-7.5,8.11-13.18,8.11c-8.42,0-14.09-6.22-14.09-14.95c0-8.91,5.49-15.13,13.85-15.13c8.24,0,13.67,5.98,13.67,15.13
			v0.85H496.95z M514.09,231.04c-0.85-4.45-4.15-7.38-8.42-7.38c-4.21,0-7.69,3.17-8.42,7.38H514.09z"/>
		<path class="st1" d="M570.76,207.25h-18.67v13.67h18.12v4.82h-18.12v17.94h18.67v4.82h-23.85v-46h23.85V207.25z"/>
		<path class="st1" d="M586.98,233.24l-10.43-13.42h5.98l7.44,9.76l7.5-9.76h6.1l-10.49,13.42l11.9,15.25h-5.92l-9.09-11.65
			l-9.09,11.65h-6.16L586.98,233.24z"/>
		<path class="st1" d="M631.46,228.36c-3.17-3.42-5.37-4.7-9.03-4.7c-5.67,0-10.13,4.51-10.13,10.62s4.39,10.55,10,10.55
			c3.78,0,5.8-1.22,9.33-5v6.53c-3.05,1.95-6.16,2.93-9.15,2.93c-8.42,0-15.19-6.41-15.19-14.95c0-8.48,6.47-15.13,15.25-15.13
			c3.11,0,6.04,0.92,8.91,2.68V228.36z"/>
		<path class="st1" d="M639.81,198.16h4.94v25.01c2.26-2.62,5-3.96,8.17-3.96c3.23,0,5.79,1.04,7.62,3.17
			c1.53,1.71,2.26,4.45,2.26,8.36v17.75h-4.88v-17.45c0-5.25-1.77-7.38-5.98-7.38c-5.06,0-7.2,3.17-7.2,10.55v14.28h-4.94V198.16z"
			/>
		<path class="st1" d="M694.04,219.82h4.94v28.67h-4.94v-3.96c-2.68,3.17-5.98,4.76-9.88,4.76c-7.93,0-13.79-6.41-13.79-15.19
			c0-8.78,5.73-14.95,13.67-14.95c3.96,0,7.32,1.59,10,4.76V219.82z M684.77,244.83c5.79,0,9.58-4.51,9.58-10.68
			c0-6.22-3.96-10.55-9.52-10.55c-5.25,0-9.46,4.39-9.46,10.37C675.37,240.19,679.22,244.83,684.77,244.83z"/>
		<path class="st1" d="M708.37,219.82h4.94v3.48c2.26-2.75,5-4.15,8.17-4.15c3.29,0,5.86,1.04,7.62,3.17
			c1.46,1.71,2.26,4.51,2.26,8.36v17.81h-4.94v-16.9c0-2.99-0.49-5-1.34-6.22c-0.92-1.16-2.44-1.77-4.7-1.77
			c-5,0-7.08,3.17-7.08,10.55v14.34h-4.94V219.82z"/>
		<path class="st1" d="M767.54,219.82v27.57c0,4.09-0.3,7.93-2.26,10.92c-2.38,3.6-5.8,6.1-11.96,6.1
			c-7.93,0-13.97-5.43-13.97-13.18h4.88c0.49,5.8,3.54,8.72,9.15,8.72c6.1,0,9.21-3.66,9.21-11.35v-4.09
			c-2.75,3.11-6.16,4.7-10.13,4.7c-7.81,0-13.6-6.59-13.6-14.95c0-8.72,6.04-15.13,13.85-15.13c3.9,0,7.26,1.59,9.88,4.76v-4.09
			H767.54z M753.21,244.83c5.61,0,9.64-4.45,9.64-10.55c0-6.34-4.03-10.68-9.58-10.68c-5.43,0-9.4,4.39-9.4,10.61
			C743.87,240.43,747.72,244.83,753.21,244.83z"/>
		<path class="st1" d="M780.66,235.19c0.24,5.86,3.9,9.64,9.09,9.64c3.84,0,6.16-1.53,8.85-5.98l4.15,2.32
			c-3.17,5.43-7.5,8.11-13.18,8.11c-8.42,0-14.09-6.22-14.09-14.95c0-8.91,5.49-15.13,13.85-15.13c8.24,0,13.67,5.98,13.67,15.13
			v0.85H780.66z M797.8,231.04c-0.85-4.45-4.15-7.38-8.42-7.38c-4.21,0-7.69,3.17-8.42,7.38H797.8z"/>
		<path class="st1" d="M830.61,202.49h9.46c4.09,0,7.62,0.55,10.55,1.59c2.93,1.1,5.55,2.81,7.87,5.12
			c4.27,4.33,6.41,9.76,6.41,16.29s-2.2,11.96-6.53,16.29c-2.44,2.38-5.06,4.15-7.93,5.19c-2.81,1.04-6.28,1.53-10.49,1.53h-9.33
			V202.49z M835.8,243.67h4.45c6.1,0,10.86-1.71,14.34-5.31c3.42-3.42,5.12-7.69,5.12-12.87s-1.71-9.52-5.06-12.93
			c-3.42-3.54-8.24-5.31-14.4-5.31h-4.45V243.67z"/>
		<path class="st1" d="M894.85,219.82h4.94v28.67h-4.94v-3.96c-2.68,3.17-5.98,4.76-9.88,4.76c-7.93,0-13.79-6.41-13.79-15.19
			c0-8.78,5.73-14.95,13.67-14.95c3.96,0,7.32,1.59,10,4.76V219.82z M885.58,244.83c5.79,0,9.58-4.51,9.58-10.68
			c0-6.22-3.96-10.55-9.52-10.55c-5.25,0-9.46,4.39-9.46,10.37C876.18,240.19,880.02,244.83,885.58,244.83z"/>
		<path class="st1" d="M918.39,245.8l-13.18-25.99h5.73l10.07,20.56l9.27-20.56h5.55l-21.11,44.78h-5.61L918.39,245.8z"/>
	</g>
</g>
</svg>
